<svg xmlns="http://www.w3.org/2000/svg" xmlns:xlink="http://www.w3.org/1999/xlink" width="500" zoomAndPan="magnify" viewBox="0 0 375 63.749997" height="85" preserveAspectRatio="xMidYMid meet" version="1.0"><defs><clipPath id="4fa009fbda"><path d="M 0.734375 31 L 26 31 L 26 32 L 0.734375 32 Z M 0.734375 31 " clip-rule="nonzero"/></clipPath><clipPath id="de866567b9"><path d="M 44 30 L 374.265625 30 L 374.265625 32 L 44 32 Z M 44 30 " clip-rule="nonzero"/></clipPath></defs><g clip-path="url(#4fa009fbda)"><path stroke-linecap="butt" transform="matrix(0.74707, 0, 0, 0.74707, 0.732431, 31.003414)" fill="none" stroke-linejoin="miter" d="M 0.00260261 0.497391 L 33.011756 0.497391 " stroke="#000000" stroke-width="1" stroke-opacity="1" stroke-miterlimit="4"/></g><path stroke-linecap="round" transform="matrix(0.353042, -0.658388, 0.658388, 0.353042, 25.071076, 31.534385)" fill="none" stroke-linejoin="miter" d="M 0.499545 0.502269 L 9.178379 0.499997 " stroke="#000000" stroke-width="1" stroke-opacity="1" stroke-miterlimit="4"/><path stroke-linecap="round" transform="matrix(-0.317914, -0.676051, 0.676051, -0.317914, 31.316064, 31.533466)" fill="none" stroke-linejoin="miter" d="M 0.50106 0.501921 L 8.430347 0.498066 " stroke="#000000" stroke-width="1" stroke-opacity="1" stroke-miterlimit="4"/><path stroke-linecap="round" transform="matrix(-0.0949556, 0.741011, -0.741011, -0.0949556, 34.114517, 15.44216)" fill="none" stroke-linejoin="miter" d="M 0.500788 0.501547 L 21.528748 0.500699 " stroke="#000000" stroke-width="1" stroke-opacity="1" stroke-miterlimit="4"/><path stroke-linecap="round" transform="matrix(0.0816263, 0.742598, -0.742598, 0.0816263, 34.118675, 15.351457)" fill="none" stroke-linejoin="miter" d="M 0.497666 0.498568 L 33.821165 0.500351 " stroke="#000000" stroke-width="1" stroke-opacity="1" stroke-miterlimit="4"/><path stroke-linecap="round" transform="matrix(-0.143908, 0.733079, -0.733079, -0.143908, 38.849691, 31.080197)" fill="none" stroke-linejoin="miter" d="M 0.500555 0.501312 L 12.963882 0.500486 " stroke="#000000" stroke-width="1" stroke-opacity="1" stroke-miterlimit="4"/><path stroke-linecap="round" transform="matrix(-0.74707, 0.00000000130388, -0.00000000130388, -0.74707, 41.664068, 31.376949)" fill="none" stroke-linejoin="miter" d="M 0.501968 0.499341 L 3.759484 0.499341 " stroke="#000000" stroke-width="1" stroke-opacity="1" stroke-miterlimit="4"/><path stroke-linecap="round" transform="matrix(0.292749, -0.687322, 0.687322, 0.292749, 41.022976, 30.971087)" fill="none" stroke-linejoin="miter" d="M 0.499769 0.498217 L 4.843013 0.501067 " stroke="#000000" stroke-width="1" stroke-opacity="1" stroke-miterlimit="4"/><path stroke-linecap="round" transform="matrix(-0.280373, -0.692463, 0.692463, -0.280373, 44.166241, 31.499705)" fill="none" stroke-linejoin="miter" d="M 0.502545 0.499308 L 5.144723 0.500407 " stroke="#000000" stroke-width="1" stroke-opacity="1" stroke-miterlimit="4"/><g clip-path="url(#de866567b9)"><path stroke-linecap="round" transform="matrix(0.74707, 0, 0, 0.74707, 44.515916, 30.74797)" fill="none" stroke-linejoin="miter" d="M 0.501572 0.49945 L 440.893768 0.49945 " stroke="#000000" stroke-width="1" stroke-opacity="1" stroke-miterlimit="4"/></g></svg>